<svg version="1.0" xmlns="http://www.w3.org/2000/svg"
 width="512.000000pt" height="512.000000pt" viewBox="0 0 512.000000 512.000000"
 preserveAspectRatio="xMidYMid meet">
<metadata>
Djament
</metadata>
<g transform="translate(0.000000,512.000000) scale(0.100000,-0.100000)"
fill="#000000" stroke="none">
<path d="M2325 5109 c-232 -20 -492 -83 -725 -176 -601 -239 -1109 -725 -1372
-1315 -429 -960 -236 -2078 487 -2827 393 -407 866 -656 1429 -752 155 -27
515 -37 679 -20 414 45 809 187 1151 415 161 107 256 186 391 321 135 135 214
230 321 391 228 342 370 737 415 1151 17 164 7 524 -20 679 -96 563 -345 1036
-752 1429 -532 514 -1256 768 -2004 704z m1524 -1865 l283 -306 -34 -36 c-19
-21 -362 -396 -763 -835 -697 -765 -728 -798 -745 -780 -38 40 -1428 1569
-1463 1609 l-37 42 277 305 278 306 961 0 960 1 283 -306z"/>
</g>
</svg>
